<svg width="25" height="24" viewBox="0 0 25 24" fill="none" xmlns="http://www.w3.org/2000/svg">
<mask id="mask0_2954_2750" style="mask-type:luminance" maskUnits="userSpaceOnUse" x="0" y="0" width="25" height="24">
<path d="M0.5 0H24.5V24H0.5V0Z" fill="white"/>
</mask>
<g mask="url(#mask0_2954_2750)">
<path d="M12.5 2.625C7.33063 2.625 3.125 6.83063 3.125 12C3.125 17.1694 7.33063 21.375 12.5 21.375C17.6694 21.375 21.875 17.1694 21.875 12C21.875 6.83063 17.6694 2.625 12.5 2.625ZM12.5 6.46875C12.8365 6.46875 13.1238 6.58774 13.3618 6.82571C13.5998 7.06369 13.7188 7.35095 13.7188 7.6875C13.7188 8.02405 13.5998 8.31131 13.3618 8.54929C13.1238 8.78726 12.8365 8.90625 12.5 8.90625C12.1635 8.90625 11.8762 8.78726 11.6382 8.54929C11.4002 8.31131 11.2812 8.02405 11.2812 7.6875C11.2812 7.35095 11.4002 7.06369 11.6382 6.82571C11.8762 6.58774 12.1635 6.46875 12.5 6.46875ZM14.75 17.0625H10.625C10.4179 17.0625 10.2411 16.9893 10.0947 16.8428C9.94822 16.6964 9.875 16.5196 9.875 16.3125C9.875 16.1054 9.94822 15.9286 10.0947 15.7822C10.2411 15.6357 10.4179 15.5625 10.625 15.5625H11.9375V11.4375H11.1875C10.9804 11.4375 10.8036 11.3643 10.6572 11.2178C10.5107 11.0714 10.4375 10.8946 10.4375 10.6875C10.4375 10.4804 10.5107 10.3036 10.6572 10.1572C10.8036 10.0107 10.9804 9.9375 11.1875 9.9375H12.6875C12.8946 9.9375 13.0714 10.0107 13.2178 10.1572C13.3643 10.3036 13.4375 10.4804 13.4375 10.6875V15.5625H14.75C14.9571 15.5625 15.1339 15.6357 15.2803 15.7822C15.4268 15.9286 15.5 16.1054 15.5 16.3125C15.5 16.5196 15.4268 16.6964 15.2803 16.8428C15.1339 16.9893 14.9571 17.0625 14.75 17.0625Z" fill="white"/>
</g>
</svg>
