<svg width="20" height="20" viewBox="0 0 20 20" fill="none" xmlns="http://www.w3.org/2000/svg">
<path d="M3.3335 8.45271C3.3335 4.70486 6.31826 1.66663 10.0002 1.66663C13.6821 1.66663 16.6668 4.70486 16.6668 8.45271C16.6668 12.1712 14.5391 16.5103 11.2192 18.062C10.4454 18.4237 9.55491 18.4237 8.78108 18.062C5.46126 16.5103 3.3335 12.1712 3.3335 8.45271Z" fill="#BBEBFF" stroke="black" stroke-width="1.5"/>
<path d="M7.5 8.33337C7.5 8.99641 7.76339 9.6323 8.23223 10.1011C8.70107 10.57 9.33696 10.8334 10 10.8334C10.663 10.8334 11.2989 10.57 11.7678 10.1011C12.2366 9.6323 12.5 8.99641 12.5 8.33337C12.5 7.67033 12.2366 7.03445 11.7678 6.56561C11.2989 6.09677 10.663 5.83337 10 5.83337C9.33696 5.83337 8.70107 6.09677 8.23223 6.56561C7.76339 7.03445 7.5 7.67033 7.5 8.33337Z" fill="#BBEBFF" stroke="black" stroke-width="1.5"/>
</svg>
