<svg width="20" height="22" viewBox="0 0 20 22" fill="none" xmlns="http://www.w3.org/2000/svg">
<path d="M16.2241 15.0244L15.4292 16.7853L13.6683 17.5801C13.2759 17.7613 13.2759 18.3147 13.6683 18.4958L15.4292 19.2907L16.2241 21.0616C16.4052 21.454 16.9586 21.454 17.1398 21.0616L17.9346 19.3007L19.7055 18.5059C20.0979 18.3247 20.0979 17.7713 19.7055 17.5903L17.9446 16.7953L17.1498 15.0244C16.9687 14.632 16.4052 14.632 16.2241 15.0244Z" fill="white"/>
<path d="M17.1498 6.97555L17.9446 5.2147L19.7055 4.41981C20.0979 4.23868 20.0979 3.68527 19.7055 3.50416L17.9446 2.70927L17.1498 0.938359C16.9687 0.545938 16.4152 0.545938 16.2342 0.938359L15.4393 2.6992L13.6683 3.4941C13.2759 3.67522 13.2759 4.22863 13.6683 4.40974L15.4292 5.20464L16.2241 6.97555C16.4052 7.36797 16.9687 7.36797 17.1498 6.97555Z" fill="white"/>
<path d="M9.1413 8.48423L7.54146 4.96253C7.1893 4.17769 6.06235 4.17769 5.71018 4.96253L4.11033 8.48423L0.588624 10.0841C-0.196208 10.4463 -0.196208 11.5632 0.588624 11.9153L4.11033 13.5153L5.71018 17.0369C6.07241 17.8217 7.1893 17.8217 7.54146 17.0369L9.1413 13.5153L12.663 11.9153C13.4479 11.5532 13.4479 10.4362 12.663 10.0841L9.1413 8.48423Z" fill="white"/>
</svg>
