<svg width="20" height="20" viewBox="0 0 20 20" fill="none" xmlns="http://www.w3.org/2000/svg">
<path fill-rule="evenodd" clip-rule="evenodd" d="M4.37484 8.37879V6.66663C4.37484 3.56003 6.89324 1.04163 9.99984 1.04163C13.1064 1.04163 15.6248 3.56003 15.6248 6.66663V8.37879C16.5538 8.44821 17.1588 8.62329 17.6009 9.06554C18.3332 9.79779 18.3332 10.9763 18.3332 13.3333C18.3332 15.6903 18.3332 16.8688 17.6009 17.601C16.8687 18.3333 15.6902 18.3333 13.3332 18.3333H6.6665C4.30948 18.3333 3.13097 18.3333 2.39874 17.601C1.6665 16.8688 1.6665 15.6903 1.6665 13.3333C1.6665 10.9763 1.6665 9.79779 2.39874 9.06554C2.84093 8.62329 3.44588 8.44821 4.37484 8.37879ZM5.62484 6.66663C5.62484 4.25038 7.5836 2.29163 9.99984 2.29163C12.4161 2.29163 14.3748 4.25038 14.3748 6.66663V8.33629C14.0557 8.33329 13.7094 8.33329 13.3332 8.33329H6.6665C6.29025 8.33329 5.94401 8.33329 5.62484 8.33629V6.66663ZM6.6665 14.1666C7.12674 14.1666 7.49984 13.7935 7.49984 13.3333C7.49984 12.873 7.12674 12.5 6.6665 12.5C6.20627 12.5 5.83317 12.873 5.83317 13.3333C5.83317 13.7935 6.20627 14.1666 6.6665 14.1666ZM9.99984 14.1666C10.4601 14.1666 10.8332 13.7935 10.8332 13.3333C10.8332 12.873 10.4601 12.5 9.99984 12.5C9.53959 12.5 9.1665 12.873 9.1665 13.3333C9.1665 13.7935 9.53959 14.1666 9.99984 14.1666ZM14.1665 13.3333C14.1665 13.7935 13.7934 14.1666 13.3332 14.1666C12.8729 14.1666 12.4998 13.7935 12.4998 13.3333C12.4998 12.873 12.8729 12.5 13.3332 12.5C13.7934 12.5 14.1665 12.873 14.1665 13.3333Z" fill="#BBEBFF"/>
</svg>
