<svg width="24" height="24" viewBox="0 0 24 24" fill="none" xmlns="http://www.w3.org/2000/svg">
<path d="M9.17041 4C9.58225 2.83481 10.6935 2 11.9997 2C13.306 2 14.4172 2.83481 14.829 4" fill="#EB5757"/>
<path d="M9.17041 4C9.58225 2.83481 10.6935 2 11.9997 2C13.306 2 14.4172 2.83481 14.829 4" stroke="#EB5757" stroke-width="1.5" stroke-linecap="round"/>
<path d="M20.5001 6H3.5" stroke="#EB5757" stroke-width="1.5" stroke-linecap="round"/>
<path d="M18.8332 8.5L18.3733 15.3991C18.1963 18.054 18.1078 19.3815 17.2428 20.1907C16.3777 21 15.0473 21 12.3865 21H11.6132C8.95235 21 7.62194 21 6.75694 20.1907C5.89193 19.3815 5.80343 18.054 5.62644 15.3991L5.1665 8.5" stroke="#EB5757" stroke-width="1.5" stroke-linecap="round"/>
<path d="M9.5 11L10 16" stroke="#EB5757" stroke-width="1.5" stroke-linecap="round"/>
<path d="M14.5 11L14 16" stroke="#EB5757" stroke-width="1.5" stroke-linecap="round"/>
</svg>
