<svg width="20" height="20" viewBox="0 0 20 20" fill="none" xmlns="http://www.w3.org/2000/svg">
<path fill-rule="evenodd" clip-rule="evenodd" d="M2.64281 4.30968C1.6665 5.286 1.6665 6.85734 1.6665 10C1.6665 13.1427 1.6665 14.7141 2.64281 15.6904C3.61913 16.6667 5.19047 16.6667 8.33317 16.6667H11.6665C14.8092 16.6667 16.3806 16.6667 17.3568 15.6904C18.3332 14.7141 18.3332 13.1427 18.3332 10C18.3332 6.85734 18.3332 5.286 17.3568 4.30968C16.3806 3.33337 14.8092 3.33337 11.6665 3.33337H8.33317C5.19047 3.33337 3.61913 3.33337 2.64281 4.30968ZM15.48 6.26659C15.7009 6.53177 15.6651 6.92587 15.3999 7.14685L13.5696 8.67221C12.8309 9.28771 12.2323 9.78662 11.7038 10.1265C11.1534 10.4805 10.6174 10.7041 9.99984 10.7041C9.38225 10.7041 8.84625 10.4805 8.29582 10.1265C7.76744 9.78662 7.16876 9.28771 6.43014 8.67221L4.59972 7.14685C4.33455 6.92587 4.29872 6.53177 4.5197 6.26659C4.74068 6.00142 5.13478 5.96559 5.39995 6.18657L7.19903 7.6858C7.9765 8.33371 8.51625 8.78204 8.972 9.07512C9.41309 9.35887 9.71225 9.45412 9.99984 9.45412C10.2874 9.45412 10.5866 9.35887 11.0277 9.07512C11.4834 8.78204 12.0232 8.33371 12.8007 7.6858L14.5998 6.18657C14.8649 5.96559 15.259 6.00142 15.48 6.26659Z" fill="#BBEBFF"/>
</svg>
