<svg width="24" height="24" viewBox="0 0 24 24" fill="none" xmlns="http://www.w3.org/2000/svg">
<g clip-path="url(#clip0_3595_3780)">
<path d="M1.06055 12.2231C1.06055 9.71965 1.06055 8.46795 1.62845 7.43035C2.19645 6.39265 3.23415 5.74865 5.30945 4.46065L7.49735 3.10275C9.69115 1.74125 10.788 1.06055 12 1.06055C13.212 1.06055 14.3089 1.74125 16.5027 3.10275L18.6906 4.46065C20.766 5.74865 21.8036 6.39265 22.3715 7.43035C22.9395 8.46795 22.9395 9.71965 22.9395 12.2231V13.8871C22.9395 18.1544 22.9395 20.2881 21.6579 21.6138C20.3763 22.9395 18.3134 22.9395 14.1879 22.9395H9.81215C5.68655 22.9395 3.62385 22.9395 2.34215 21.6138C1.06055 20.2881 1.06055 18.1544 1.06055 13.8871V12.2231Z" stroke="#7F909F" stroke-width="1.5"/>
<path d="M15.2821 18.5637H8.71826" stroke="#7F909F" stroke-width="1.5" stroke-linecap="round"/>
</g>
<defs>
<clipPath id="clip0_3595_3780">
<rect width="24" height="24" fill="white"/>
</clipPath>
</defs>
</svg>
