<svg width="24" height="25" viewBox="0 0 24 25" fill="none" xmlns="http://www.w3.org/2000/svg">
<g clip-path="url(#clip0_3595_3867)">
<path fill-rule="evenodd" clip-rule="evenodd" d="M0.850834 7.58749C0.240234 8.70299 0.240234 10.0486 0.240234 12.7398V14.5286C0.240234 19.1159 0.240234 21.4097 1.61803 22.8348C2.99573 24.26 5.21323 24.26 9.64823 24.26H14.3522C18.7871 24.26 21.0047 24.26 22.3824 22.8348C23.7602 21.4097 23.7602 19.1159 23.7602 14.5286V12.7398C23.7602 10.0486 23.7602 8.70299 23.1496 7.58759C22.539 6.47209 21.4236 5.77979 19.1926 4.39519L16.8406 2.93549C14.4823 1.47179 13.3031 0.73999 12.0002 0.73999C10.6973 0.73999 9.51813 1.47179 7.15983 2.93539L4.80783 4.39519C2.57693 5.77979 1.46143 6.47209 0.850834 7.58749ZM8.47223 18.674C7.98513 18.674 7.59023 19.0689 7.59023 19.556C7.59023 20.0431 7.98513 20.438 8.47223 20.438H15.5282C16.0153 20.438 16.4102 20.0431 16.4102 19.556C16.4102 19.0689 16.0153 18.674 15.5282 18.674H8.47223Z" fill="#BBEBFF"/>
</g>
<defs>
<clipPath id="clip0_3595_3867">
<rect width="24" height="24" fill="white" transform="translate(0 0.5)"/>
</clipPath>
</defs>
</svg>
