<svg width="51" height="50" viewBox="0 0 51 50" fill="none" xmlns="http://www.w3.org/2000/svg">
<g clip-path="url(#clip0_1957_5462)">
<path d="M29.6665 27.0837C26.2208 27.0837 23.4166 24.2795 23.4166 20.8337C23.4166 17.3879 26.2208 14.5837 29.6665 14.5837H33.8329V6.25049C33.8329 2.80469 31.0287 0.000488281 27.5829 0.000488281H5.18746C4.50192 0.000488281 3.86033 0.337695 3.47088 0.902246C3.08328 1.46689 2.99598 2.18594 3.24158 2.82529L18.3457 42.4089C18.6521 43.2172 19.4268 43.7505 20.2916 43.7505H27.5829C31.0287 43.7505 33.8329 40.9463 33.8329 37.5005V27.0837H29.6665Z" fill="#BBEBFF"/>
<path d="M39.2852 31.0922C38.5082 30.769 37.9997 30.0088 37.9997 29.1669V22.9169H29.6666C28.5165 22.9169 27.583 21.9838 27.583 20.8337C27.583 19.6836 28.5165 18.7505 29.6666 18.7505H37.9997V12.5005C37.9997 11.6586 38.5082 10.8983 39.2852 10.5752C39.666 10.4175 40.085 10.3764 40.4891 10.4569C40.8933 10.5375 41.2645 10.7361 41.5557 11.0276L49.8892 19.3608C50.7037 20.1753 50.7037 21.4921 49.8892 22.3065L41.5557 30.6401C41.2644 30.9316 40.8932 31.1301 40.489 31.2105C40.0849 31.291 39.666 31.2498 39.2852 31.0922Z" fill="white"/>
<path d="M18.5125 4.3793L5.99379 0.20645C3.16872 -0.6623 0.5 1.42315 0.5 4.1667V41.6667C0.5 43.4482 1.63329 45.0378 3.32097 45.621L15.8373 49.7939C16.2977 49.9355 16.7207 50.0003 17.1666 50.0003C19.4646 50.0003 21.333 48.1315 21.333 45.8335V8.3335C21.333 6.55245 20.1997 4.9628 18.5124 4.3792L18.5125 4.3793Z" fill="#6882F7"/>
</g>
<defs>
<clipPath id="clip0_1957_5462">
<rect width="50" height="50" fill="white" transform="translate(0.5)"/>
</clipPath>
</defs>
</svg>
