<svg width="42" height="42" viewBox="0 0 42 42" fill="none" xmlns="http://www.w3.org/2000/svg">
<rect width="42" height="42" rx="12" fill="#16181E"/>
<path d="M20.8999 27.6217L20.354 27.5729C16.6692 27.2404 13.7799 24.1455 13.7798 20.3903V18.8102C13.7798 18.7778 13.7919 18.7542 13.8081 18.7379C13.8243 18.7217 13.848 18.7096 13.8804 18.7096C13.9126 18.7096 13.9364 18.7217 13.9526 18.7379C13.9688 18.7541 13.98 18.7779 13.98 18.8102V20.4C13.98 24.2714 17.1291 27.4196 21.0005 27.4196C24.8717 27.4194 28.02 24.2713 28.02 20.4V18.8199C28.02 18.7876 28.0321 18.7639 28.0483 18.7477C28.0646 18.7316 28.0884 18.7203 28.1206 18.7203C28.1547 18.7205 28.1928 18.7434 28.2104 18.7819L28.2202 18.8258V20.3903C28.2201 24.146 25.3209 27.2487 21.6479 27.5719L21.1001 27.6207V30.3004C21.1 30.3326 21.0879 30.3555 21.0718 30.3717C21.0556 30.3879 21.0326 30.3999 21.0005 30.4C20.9681 30.4 20.9445 30.3879 20.9282 30.3717C20.9121 30.3555 20.9 30.3325 20.8999 30.3004V27.6217Z" fill="#BBEBFF" stroke="#BBEBFF" stroke-width="1.2"/>
<path d="M21.0001 11C18.5601 11 16.5801 12.98 16.5801 15.42V20.54C16.5801 22.98 18.5601 24.96 21.0001 24.96C23.4401 24.96 25.4201 22.98 25.4201 20.54V15.42C25.4201 12.98 23.4401 11 21.0001 11ZM22.3101 17.95C22.2401 18.21 22.0101 18.38 21.7501 18.38C21.7001 18.38 21.6501 18.37 21.6001 18.36C21.2101 18.25 20.8001 18.25 20.4101 18.36C20.0901 18.45 19.7801 18.26 19.7001 17.95C19.6101 17.64 19.8001 17.32 20.1101 17.24C20.7001 17.08 21.3201 17.08 21.9101 17.24C22.2101 17.32 22.3901 17.64 22.3101 17.95ZM22.8401 16.01C22.7501 16.25 22.5301 16.39 22.2901 16.39C22.2201 16.39 22.1601 16.38 22.0901 16.36C21.3901 16.1 20.6101 16.1 19.9101 16.36C19.6101 16.47 19.2701 16.31 19.1601 16.01C19.0501 15.71 19.2101 15.37 19.5101 15.27C20.4701 14.92 21.5301 14.92 22.4901 15.27C22.7901 15.38 22.9501 15.71 22.8401 16.01Z" fill="#BBEBFF"/>
</svg>
