<svg width="20" height="20" viewBox="0 0 20 20" fill="none" xmlns="http://www.w3.org/2000/svg">
<path d="M6.6665 4.99996C6.6665 5.88401 7.01769 6.73186 7.64281 7.35698C8.26794 7.9821 9.11578 8.33329 9.99984 8.33329C10.8839 8.33329 11.7317 7.9821 12.3569 7.35698C12.982 6.73186 13.3332 5.88401 13.3332 4.99996C13.3332 4.1159 12.982 3.26806 12.3569 2.64294C11.7317 2.01782 10.8839 1.66663 9.99984 1.66663C9.11578 1.66663 8.26794 2.01782 7.64281 2.64294C7.01769 3.26806 6.6665 4.1159 6.6665 4.99996Z" fill="#BBEBFF"/>
<path d="M4.1665 14.1667C4.1665 14.6044 4.31739 15.0379 4.61054 15.4423C4.90369 15.8467 5.33337 16.2142 5.87505 16.5237C6.41672 16.8333 7.05978 17.0788 7.76752 17.2463C8.47525 17.4138 9.23379 17.5 9.99984 17.5C10.7659 17.5 11.5244 17.4138 12.2322 17.2463C12.9399 17.0788 13.583 16.8333 14.1246 16.5237C14.6663 16.2142 15.096 15.8467 15.3891 15.4423C15.6823 15.0379 15.8332 14.6044 15.8332 14.1667C15.8332 13.729 15.6823 13.2955 15.3891 12.8911C15.096 12.4867 14.6663 12.1192 14.1246 11.8097C13.583 11.5002 12.9399 11.2546 12.2322 11.0871C11.5244 10.9196 10.7659 10.8334 9.99984 10.8334C9.23379 10.8334 8.47525 10.9196 7.76752 11.0871C7.05978 11.2546 6.41672 11.5002 5.87505 11.8097C5.33337 12.1192 4.90369 12.4867 4.61054 12.8911C4.31739 13.2955 4.1665 13.729 4.1665 14.1667Z" fill="#BBEBFF"/>
</svg>
