<svg width="59" height="56" viewBox="0 0 59 56" fill="none" xmlns="http://www.w3.org/2000/svg">
<path d="M44.9325 55.2326C42.5103 55.2305 40.1343 54.5688 38.0598 53.3183C35.9853 52.0679 34.2905 50.276 33.1575 48.1351C32.0678 48.9617 30.7377 49.4094 29.37 49.4101H14.4025C10.7816 49.4061 7.31016 47.9654 4.75046 45.4043C2.19077 42.8432 0.751985 39.371 0.75 35.7501V14.4201C0.75397 10.8004 2.19363 7.33017 4.75311 4.77069C7.31259 2.21121 10.7829 0.771548 14.4025 0.767578H42.4025C46.0292 0.770887 49.5065 2.21289 52.0712 4.77713C54.6359 7.34137 56.0785 10.8184 56.0825 14.4451V27.2151C56.0819 28.1311 55.8755 29.0352 55.4788 29.8608C55.082 30.6864 54.5049 31.4123 53.79 31.9851C55.8046 33.7809 57.2258 36.1466 57.8652 38.7686C58.5046 41.3906 58.332 44.145 57.3703 46.6666C56.4085 49.1882 54.7031 51.358 52.48 52.8883C50.257 54.4185 47.6213 55.2369 44.9225 55.2351L44.9325 55.2326Z" fill="white"/>
<path d="M44.9325 32.3451C43.0396 32.3446 41.1891 32.9054 39.615 33.9567C38.0409 35.008 36.8139 36.5024 36.0892 38.2511C35.3645 39.9997 35.1746 41.924 35.5436 43.7806C35.9126 45.6371 36.8238 47.3426 38.1621 48.6812C39.5004 50.0198 41.2056 50.9315 43.0621 51.301C44.9185 51.6705 46.8429 51.4811 48.5917 50.7568C50.3405 50.0326 51.8353 48.806 52.887 47.2321C53.9387 45.6583 54.5 43.8079 54.5 41.9151C54.5 39.3774 53.4921 36.9436 51.6979 35.1489C49.9037 33.3543 47.4702 32.3457 44.9325 32.3451ZM48.7575 45.8451C48.4209 46.1814 47.9646 46.3703 47.4888 46.3703C47.0129 46.3703 46.5566 46.1814 46.22 45.8451L44.97 44.5951L43.655 45.9126C43.3154 46.2335 42.864 46.4094 42.3968 46.4028C41.9295 46.3962 41.4833 46.2076 41.1529 45.8772C40.8224 45.5468 40.6339 45.1006 40.6273 44.6333C40.6207 44.1661 40.7966 43.7147 41.1175 43.3751L42.4325 42.0576L41.1825 40.8076C40.8583 40.4706 40.6783 40.0204 40.681 39.5528C40.6837 39.0852 40.8687 38.637 41.1967 38.3038C41.5248 37.9705 41.9699 37.7784 42.4375 37.7684C42.905 37.7584 43.358 37.9312 43.7 38.2501L44.95 39.5001L46.1525 38.2976C46.4921 37.9766 46.9435 37.8008 47.4108 37.8074C47.878 37.814 48.3242 38.0025 48.6547 38.3329C48.9851 38.6633 49.1736 39.1096 49.1802 39.5768C49.1868 40.0441 49.011 40.4955 48.69 40.8351L47.4875 42.0376L48.7375 43.2876C48.9082 43.4538 49.0442 43.6524 49.1374 43.8717C49.2306 44.091 49.2792 44.3267 49.2803 44.565C49.2815 44.8032 49.2352 45.0394 49.1442 45.2596C49.0531 45.4798 48.9191 45.6797 48.75 45.8476L48.7575 45.8451ZM4.5 15.5201V14.4201C4.5 11.7938 5.5433 9.27503 7.40038 7.41795C9.25746 5.56087 11.7762 4.51758 14.4025 4.51758H42.415C43.7186 4.51758 45.0094 4.77438 46.2137 5.27331C47.418 5.77225 48.5123 6.50354 49.4339 7.42543C50.3556 8.34731 51.0866 9.44173 51.5852 10.6462C52.0839 11.8506 52.3403 13.1415 52.34 14.4451V15.5201C52.3403 15.8341 52.2788 16.1452 52.1588 16.4355C52.0388 16.7257 51.8628 16.9895 51.6409 17.2117C51.4189 17.4339 51.1553 17.6101 50.8652 17.7304C50.5751 17.8507 50.2641 17.9126 49.95 17.9126H6.8925C6.57822 17.9129 6.26696 17.8512 5.97654 17.7311C5.68612 17.611 5.42224 17.4348 5.20002 17.2126C4.97779 16.9903 4.80157 16.7265 4.68145 16.436C4.56133 16.1456 4.49967 15.8344 4.5 15.5201Z" fill="url(#paint0_linear_4143_4245)"/>
<path d="M49.95 21.5H6.8925C6.25797 21.5 5.64943 21.7521 5.20075 22.2007C4.75207 22.6494 4.5 23.258 4.5 23.8925V35.75C4.49967 37.0505 4.75558 38.3383 5.25311 39.5399C5.75065 40.7415 6.48005 41.8333 7.39964 42.7529C8.31924 43.6725 9.41101 44.4019 10.6126 44.8994C11.8142 45.3969 13.102 45.6528 14.4025 45.6525H29.37C29.7027 45.6582 30.0331 45.5952 30.3403 45.4673C30.6476 45.3395 30.9251 45.1496 31.1556 44.9095C31.3861 44.6694 31.5645 44.3843 31.6797 44.0721C31.7948 43.7599 31.8443 43.4272 31.825 43.095C31.6471 41.1054 31.9232 39.1013 32.6326 37.234C33.3419 35.3666 34.466 33.6847 35.92 32.315C37.2753 30.9941 38.9158 30.0019 40.715 29.415C43.461 28.5061 46.4286 28.5175 49.1675 29.4475C49.5269 29.5744 49.9116 29.6132 50.2891 29.5605C50.6666 29.5078 51.0259 29.3652 51.3368 29.1446C51.6478 28.9241 51.9012 28.6322 52.0757 28.2933C52.2503 27.9545 52.3409 27.5787 52.34 27.1975V23.8925C52.34 23.2584 52.0883 22.6502 51.6401 22.2016C51.192 21.753 50.5841 21.5007 49.95 21.5ZM18.8525 37.6475H14.0675C13.6034 37.6302 13.164 37.4336 12.8418 37.0991C12.5195 36.7646 12.3395 36.3182 12.3395 35.8538C12.3395 35.3893 12.5195 34.9429 12.8418 34.6084C13.164 34.2739 13.6034 34.0773 14.0675 34.06H18.8525C19.3166 34.0773 19.756 34.2739 20.0782 34.6084C20.4005 34.9429 20.5805 35.3893 20.5805 35.8538C20.5805 36.3182 20.4005 36.7646 20.0782 37.0991C19.756 37.4336 19.3166 37.6302 18.8525 37.6475Z" fill="url(#paint1_linear_4143_4245)"/>
<defs>
<linearGradient id="paint0_linear_4143_4245" x1="57.6875" y1="42.6901" x2="14.9075" y2="-0.0899239" gradientUnits="userSpaceOnUse">
<stop stop-color="#629AD3"/>
<stop offset="1" stop-color="#79AED4"/>
</linearGradient>
<linearGradient id="paint1_linear_4143_4245" x1="38.79" y1="41.75" x2="12.22" y2="15.1825" gradientUnits="userSpaceOnUse">
<stop stop-color="#6882F7"/>
<stop offset="1" stop-color="#678EC9"/>
</linearGradient>
</defs>
</svg>
