<svg width="20" height="20" viewBox="0 0 20 20" fill="none" xmlns="http://www.w3.org/2000/svg">
<path d="M11.6668 3.33325H8.33348C5.19098 3.33325 3.61931 3.33325 2.64348 4.30992C1.94014 5.01242 1.74348 6.02409 1.68848 7.70825H18.3118C18.2568 6.02409 18.0601 5.01242 17.3568 4.30992C16.381 3.33325 14.8093 3.33325 11.6668 3.33325Z" fill="#BBEBFF"/>
<path fill-rule="evenodd" clip-rule="evenodd" d="M8.33317 16.6666H11.6665C14.809 16.6666 16.3807 16.6666 17.3565 15.6899C18.3332 14.7141 18.3332 13.1424 18.3332 9.99992C18.3332 9.63159 18.3332 9.28492 18.3315 8.95825H1.66817C1.6665 9.28492 1.6665 9.63159 1.6665 9.99992C1.6665 13.1424 1.6665 14.7141 2.64317 15.6899C3.619 16.6666 5.19067 16.6666 8.33317 16.6666ZM4.37484 13.3333C4.37484 13.1675 4.44069 13.0085 4.5579 12.8913C4.67511 12.7741 4.83408 12.7083 4.99984 12.7083H8.33317C8.49893 12.7083 8.6579 12.7741 8.77511 12.8913C8.89232 13.0085 8.95817 13.1675 8.95817 13.3333C8.95817 13.499 8.89232 13.658 8.77511 13.7752C8.6579 13.8924 8.49893 13.9583 8.33317 13.9583H4.99984C4.83408 13.9583 4.67511 13.8924 4.5579 13.7752C4.44069 13.658 4.37484 13.499 4.37484 13.3333ZM10.4165 12.7083C10.2507 12.7083 10.0918 12.7741 9.97456 12.8913C9.85735 13.0085 9.7915 13.1675 9.7915 13.3333C9.7915 13.499 9.85735 13.658 9.97456 13.7752C10.0918 13.8924 10.2507 13.9583 10.4165 13.9583H11.6665C11.8323 13.9583 11.9912 13.8924 12.1084 13.7752C12.2257 13.658 12.2915 13.499 12.2915 13.3333C12.2915 13.1675 12.2257 13.0085 12.1084 12.8913C11.9912 12.7741 11.8323 12.7083 11.6665 12.7083H10.4165Z" fill="#BBEBFF"/>
</svg>
