<svg width="20" height="20" viewBox="0 0 20 20" fill="none" xmlns="http://www.w3.org/2000/svg">
<path d="M13.797 10.7551L13.4174 11.1325C13.4174 11.1325 12.5152 12.0295 10.0527 9.58096C7.59026 7.13246 8.49241 6.23543 8.49241 6.23543L8.73141 5.99777C9.32024 5.41232 9.37574 4.47238 8.86199 3.78619L7.81121 2.38252C7.17539 1.53322 5.94679 1.42103 5.21804 2.14565L3.91004 3.44622C3.54869 3.80552 3.30654 4.27128 3.3359 4.78796C3.41103 6.10981 4.00909 8.95387 7.34629 12.2721C10.8852 15.791 14.2058 15.9308 15.5637 15.8042C15.9932 15.7642 16.3667 15.5455 16.6677 15.2461L17.8516 14.0691C18.6507 13.2745 18.4253 11.9124 17.4029 11.3566L15.8108 10.4911C15.1395 10.1262 14.3217 10.2334 13.797 10.7551Z" fill="#BBEBFF"/>
</svg>
