<svg width="20" height="20" viewBox="0 0 20 20" fill="none" xmlns="http://www.w3.org/2000/svg">
<path d="M9.375 1.72778C8.86975 1.82203 8.27632 2.02517 7.36477 2.3372L6.88742 2.50059C4.38193 3.35823 3.12919 3.78705 2.8146 4.23527C2.50688 4.67371 2.50015 5.95805 2.5 8.50777L9.375 6.21613V1.72778Z" fill="#BBEBFF"/>
<path d="M9.375 7.53369L2.5 9.82538V9.99272C2.5 14.691 6.03247 16.9711 8.2488 17.9393C8.67442 18.1252 8.94933 18.2453 9.375 18.2996V7.53369Z" fill="#BBEBFF"/>
<path d="M10.625 18.2996V7.53369L17.5 9.82538V9.99272C17.5 14.691 13.9675 16.9711 11.7512 17.9393C11.3256 18.1252 11.0507 18.2453 10.625 18.2996Z" fill="#BBEBFF"/>
<path d="M10.625 6.21613V1.72778C11.1302 1.82203 11.7237 2.02517 12.6353 2.3372L13.1126 2.50059C15.6181 3.35823 16.8708 3.78705 17.1854 4.23527C17.4932 4.67371 17.4998 5.95805 17.5 8.50777L10.625 6.21613Z" fill="#BBEBFF"/>
</svg>
