<svg width="24" height="25" viewBox="0 0 24 25" fill="none" xmlns="http://www.w3.org/2000/svg">
<path d="M8 6.5C8 7.56087 8.42143 8.57828 9.17157 9.32843C9.92172 10.0786 10.9391 10.5 12 10.5C13.0609 10.5 14.0783 10.0786 14.8284 9.32843C15.5786 8.57828 16 7.56087 16 6.5C16 5.43913 15.5786 4.42172 14.8284 3.67157C14.0783 2.92143 13.0609 2.5 12 2.5C10.9391 2.5 9.92172 2.92143 9.17157 3.67157C8.42143 4.42172 8 5.43913 8 6.5Z" fill="#BBEBFF"/>
<path d="M5 17.5C5 18.0253 5.18106 18.5454 5.53284 19.0307C5.88463 19.516 6.40024 19.957 7.05025 20.3284C7.70026 20.6999 8.47194 20.9945 9.32122 21.1955C10.1705 21.3965 11.0807 21.5 12 21.5C12.9193 21.5 13.8295 21.3965 14.6788 21.1955C15.5281 20.9945 16.2997 20.6999 16.9497 20.3284C17.5998 19.957 18.1154 19.516 18.4672 19.0307C18.8189 18.5454 19 18.0253 19 17.5C19 16.9747 18.8189 16.4546 18.4672 15.9693C18.1154 15.484 17.5998 15.043 16.9497 14.6716C16.2997 14.3001 15.5281 14.0055 14.6788 13.8045C13.8295 13.6035 12.9193 13.5 12 13.5C11.0807 13.5 10.1705 13.6035 9.32122 13.8045C8.47194 14.0055 7.70026 14.3001 7.05025 14.6716C6.40024 15.043 5.88463 15.484 5.53284 15.9693C5.18106 16.4546 5 16.9747 5 17.5Z" fill="#BBEBFF"/>
</svg>
