<svg width="42" height="42" viewBox="0 0 42 42" fill="none" xmlns="http://www.w3.org/2000/svg">
<rect width="42" height="42" rx="12" fill="#16181E"/>
<path fill-rule="evenodd" clip-rule="evenodd" d="M21 31C26.5228 31 31 26.5228 31 21C31 15.4771 26.5228 11 21 11C15.4771 11 11 15.4771 11 21C11 26.5228 15.4771 31 21 31ZM21.75 15C21.75 14.5858 21.4142 14.25 21 14.25C20.5858 14.25 20.25 14.5858 20.25 15V15.3167C18.6196 15.6087 17.25 16.8336 17.25 18.5C17.25 20.4172 19.0628 21.75 21 21.75C22.3765 21.75 23.25 22.6557 23.25 23.5C23.25 24.3443 22.3765 25.25 21 25.25C19.6235 25.25 18.75 24.3443 18.75 23.5C18.75 23.0858 18.4142 22.75 18 22.75C17.5858 22.75 17.25 23.0858 17.25 23.5C17.25 25.1664 18.6196 26.3913 20.25 26.6833V27C20.25 27.4142 20.5858 27.75 21 27.75C21.4142 27.75 21.75 27.4142 21.75 27V26.6833C23.3804 26.3913 24.75 25.1664 24.75 23.5C24.75 21.5828 22.9372 20.25 21 20.25C19.6235 20.25 18.75 19.3443 18.75 18.5C18.75 17.6557 19.6235 16.75 21 16.75C22.3765 16.75 23.25 17.6557 23.25 18.5C23.25 18.9142 23.5858 19.25 24 19.25C24.4142 19.25 24.75 18.9142 24.75 18.5C24.75 16.8336 23.3804 15.6087 21.75 15.3167V15Z" fill="#BBEBFF"/>
</svg>
