<svg width="42" height="42" viewBox="0 0 42 42" fill="none" xmlns="http://www.w3.org/2000/svg">
<rect width="42" height="42" rx="12" fill="#16181E"/>
<path fill-rule="evenodd" clip-rule="evenodd" d="M21 31C26.523 31 31 26.523 31 21C31 15.477 26.523 11 21 11C15.477 11 11 15.477 11 21C11 26.523 15.477 31 21 31ZM21.75 17C21.75 16.8011 21.671 16.6103 21.5303 16.4697C21.3897 16.329 21.1989 16.25 21 16.25C20.8011 16.25 20.6103 16.329 20.4697 16.4697C20.329 16.6103 20.25 16.8011 20.25 17V21C20.25 21.199 20.329 21.39 20.47 21.53L22.97 24.03C23.0387 24.1037 23.1215 24.1628 23.2135 24.2038C23.3055 24.2448 23.4048 24.2668 23.5055 24.2686C23.6062 24.2704 23.7062 24.2518 23.7996 24.2141C23.893 24.1764 23.9778 24.1203 24.049 24.049C24.1203 23.9778 24.1764 23.893 24.2141 23.7996C24.2518 23.7062 24.2704 23.6062 24.2686 23.5055C24.2668 23.4048 24.2448 23.3055 24.2038 23.2135C24.1628 23.1215 24.1037 23.0387 24.03 22.97L21.75 20.69V17Z" fill="#BBEBFF"/>
</svg>
