<svg width="200" height="158" viewBox="0 0 200 158" fill="none" xmlns="http://www.w3.org/2000/svg">
<mask id="mask0_1481_11416" style="mask-type:luminance" maskUnits="userSpaceOnUse" x="0" y="0" width="16" height="15">
<path d="M0 0H16V14.2222H0V0Z" fill="white"/>
</mask>
<g mask="url(#mask0_1481_11416)">
<path d="M7.20275 1.22961L5.38886 4.49875L1.33052 5.02467C0.602743 5.11851 0.311077 5.91604 0.838855 6.37283L3.77497 8.91603L3.08052 12.5086C2.95552 13.158 3.72497 13.6444 4.36941 13.3407L7.99997 11.6444L11.6305 13.3407C12.275 13.642 13.0444 13.158 12.9194 12.5086L12.225 8.91603L15.1611 6.37283C15.6889 5.91604 15.3972 5.11851 14.6694 5.02467L10.6111 4.49875L8.79719 1.22961C8.47219 0.646898 7.53052 0.639491 7.20275 1.22961Z" fill="#FCD34D"/>
</g>
<path d="M198.004 55.9813L191.917 55.1925L189.196 50.2888C188.708 49.4147 187.296 49.4036 186.804 50.2888L184.083 55.1925L177.996 55.9813C176.904 56.1221 176.467 57.3184 177.258 58.0036L181.662 61.8184L180.621 67.2073C180.433 68.1813 181.587 68.911 182.554 68.4554L188 65.911L193.446 68.4554C194.412 68.9073 195.567 68.1813 195.379 67.2072L194.337 61.8184L198.742 58.0036C199.533 57.3184 199.096 56.1221 198.004 55.9813ZM192.192 61.1961L193.179 66.3221L188 63.9035L182.821 66.3221L183.808 61.1961L179.617 57.5665L185.408 56.8184L188 52.1517L190.592 56.8184L196.383 57.5665L192.192 61.1961Z" fill="#A855F7"/>
<mask id="mask1_1481_11416" style="mask-type:luminance" maskUnits="userSpaceOnUse" x="48" y="140" width="20" height="18">
<path d="M48 140.222H68V158H48V140.222Z" fill="white"/>
</mask>
<g mask="url(#mask1_1481_11416)">
<path d="M57.0035 141.759L54.7361 145.845L49.6632 146.503C48.7535 146.62 48.3889 147.617 49.0486 148.188L52.7188 151.367L51.8507 155.858C51.6945 156.669 52.6563 157.277 53.4618 156.898L58 154.777L62.5382 156.898C63.3438 157.274 64.3056 156.669 64.1493 155.858L63.2813 151.367L66.9514 148.188C67.6111 147.617 67.2465 146.62 66.3368 146.503L61.2639 145.845L58.9965 141.759C58.5903 141.03 57.4132 141.021 57.0035 141.759Z" fill="#2DD4BF"/>
</g>
<path d="M166.669 105.025L162.611 104.499L160.797 101.23C160.472 100.647 159.53 100.64 159.202 101.23L157.388 104.499L153.33 105.025C152.602 105.119 152.311 105.916 152.838 106.373L155.775 108.916L155.08 112.509C154.955 113.158 155.725 113.645 156.369 113.341L160 111.645L163.63 113.341C164.275 113.642 165.044 113.158 164.919 112.509L164.225 108.916L167.161 106.373C167.688 105.916 167.397 105.119 166.669 105.025ZM162.794 108.502L163.452 111.919L160 110.307L156.547 111.919L157.205 108.502L154.411 106.082L158.272 105.583L160 102.472L161.727 105.583L165.588 106.082L162.794 108.502Z" fill="#FCD34D"/>
<path d="M151.051 63.0016C151.051 29.2816 123.717 1.9502 90.0007 1.9502C56.2829 1.9502 28.9493 29.2814 28.9493 63.0016C28.9493 96.717 56.2829 124.05 90.0007 124.05C123.717 124.05 151.051 96.717 151.051 63.0016Z" fill="#32BEA6"/>
<path d="M123.615 42.5468C122.178 38.8409 119.249 39.4259 116.076 40.0546C114.181 40.4496 105.751 42.917 92.4144 56.9802C86.8797 62.8168 83.2287 67.47 80.8248 71.0187C79.3564 69.2158 77.6741 67.2869 75.9074 65.5194C70.4741 60.0877 64.4151 56.3574 64.1603 56.2006C61.6177 54.6463 58.2984 55.4461 56.7396 57.9868C55.1828 60.5274 55.9802 63.8522 58.5189 65.4124C58.5708 65.4451 63.774 68.6621 68.2689 73.1582C72.8529 77.7427 77.0062 83.9425 77.047 84.0026C78.0582 85.5229 79.756 86.4101 81.5422 86.4101C81.8488 86.4101 82.1584 86.3843 82.4665 86.3308C84.5746 85.9647 86.2679 84.3884 86.7842 82.3116C86.7973 82.2617 88.939 76.3424 100.253 64.414C109.366 54.8033 115.443 51.7488 117.548 50.9015C117.568 50.898 117.583 50.8965 117.61 50.8909C117.6 50.8933 117.678 50.8572 117.805 50.8001C118.167 50.6645 118.361 50.6126 118.372 50.6098C118.268 50.6357 118.214 50.6421 118.214 50.6421L118.21 50.6234C119.185 50.1984 121.009 49.4136 121.049 49.3969C123.795 48.2685 124.688 45.3144 123.615 42.5468Z" fill="white"/>
</svg>
