<svg width="45" height="43" viewBox="0 0 45 43" fill="none" xmlns="http://www.w3.org/2000/svg">
<mask id="mask0_1972_8754" style="mask-type:luminance" maskUnits="userSpaceOnUse" x="0" y="0" width="45" height="43">
<path d="M0.874023 0H44.5231V42.6667H0.874023V0Z" fill="white"/>
</mask>
<g mask="url(#mask0_1972_8754)">
<mask id="mask1_1972_8754" style="mask-type:luminance" maskUnits="userSpaceOnUse" x="0" y="0" width="45" height="43">
<path d="M0.874023 0H44.5231V42.6667H0.874023V0Z" fill="white"/>
</mask>
<g mask="url(#mask1_1972_8754)">
<path d="M20.523 3.68884L15.5746 13.4963L4.50316 15.074C2.51773 15.3555 1.72204 17.7481 3.16186 19.1185L11.1718 26.7481L9.27728 37.5259C8.93627 39.474 11.0354 40.9333 12.7934 40.0222L22.6979 34.9333L32.6023 40.0222C34.3604 40.9259 36.4594 39.474 36.1184 37.5259L34.224 26.7481L42.2338 19.1185C43.6737 17.7481 42.878 15.3555 40.8925 15.074L29.8211 13.4963L24.8728 3.68884C23.9861 1.94069 21.4172 1.91847 20.523 3.68884Z" fill="#FACC15"/>
</g>
</g>
</svg>
