<svg width="67" height="66" viewBox="0 0 67 66" fill="none" xmlns="http://www.w3.org/2000/svg">
<path d="M41.4898 17.75C33.9798 20.46 30.8398 33.32 32.5898 57.31C32.6698 58.43 31.7798 59.39 30.6598 59.39H5.29981C4.31981 59.39 3.47981 58.66 3.36981 57.68C2.52981 50.26 2.28981 42.78 2.65981 35.32C2.79981 32.4 3.03981 29.44 3.95981 26.67C4.87981 23.9 6.54981 21.27 9.01981 19.71C12.2798 17.65 16.3898 17.69 20.2398 17.8C27.2498 17.98 34.4698 17.56 41.4898 17.75Z" fill="white"/>
<path d="M41.4804 17.75C35.5404 19.9 32.3304 28.41 32.1104 43.79L41.4804 17.75Z" fill="black"/>
<path d="M46.4001 43.78H32.1201C32.3301 28.41 35.5401 19.9 41.4901 17.74C43.2201 18.82 44.6501 20.56 45.6001 23.32C46.2701 25.57 46.2901 27.96 46.3101 30.3L46.4001 43.78Z" fill="#8D77E6"/>
<path d="M42.4401 18.45C37.4301 21.41 34.7301 29.73 34.5401 43.79H32.1201C32.3301 28.42 35.5401 19.9 41.4801 17.75C41.8201 17.96 42.1401 18.18 42.4401 18.45Z" fill="white"/>
<path d="M60.3207 8.60995C59.7607 28.05 51.0707 37.41 46.4107 43.79C46.3807 39.3 46.3407 34.81 46.3107 30.32C46.2907 27.98 46.2707 25.59 45.6007 23.34C44.6507 20.58 43.2207 18.84 41.4907 17.76C37.2907 17.64 33.0207 17.75 28.7607 17.81C29.5607 14.86 29.8407 11.76 29.5607 8.71995C29.4607 7.58995 30.3607 6.61995 31.4907 6.61995H58.3807C59.4707 6.60995 60.3507 7.51995 60.3207 8.60995Z" fill="white"/>
<path d="M30.6503 59.87H5.29026C4.05026 59.87 3.02026 58.95 2.88026 57.73C2.04046 50.2813 1.79969 42.7772 2.16026 35.29C2.29026 32.58 2.51026 29.44 3.49026 26.51C4.54026 23.33 6.41026 20.77 8.76026 19.29C12.2603 17.08 16.6903 17.21 20.2603 17.3C23.7503 17.4 27.3703 17.34 30.8603 17.28C34.3603 17.22 37.9903 17.16 41.5103 17.26C41.7403 17.27 41.9403 17.44 41.9803 17.67C42.0203 17.9 41.8903 18.12 41.6703 18.2C34.2803 20.87 31.3903 34.02 33.0803 57.26C33.1303 57.93 32.8903 58.6 32.4403 59.09C31.9703 59.59 31.3203 59.87 30.6503 59.87ZM17.8803 18.23C14.9803 18.23 11.8203 18.51 9.28026 20.11C7.13026 21.47 5.40026 23.85 4.42026 26.81C3.48026 29.63 3.27026 32.69 3.14026 35.34C2.78026 42.75 3.02026 50.25 3.85026 57.62C3.93026 58.35 4.55026 58.9 5.30026 58.9H30.6603C31.0703 58.9 31.4503 58.74 31.7203 58.44C32.0003 58.14 32.1403 57.75 32.1103 57.34C30.5103 35.54 33.0003 22.39 39.5003 18.2C36.6303 18.16 33.7103 18.21 30.8703 18.26C27.3703 18.32 23.7403 18.38 20.2303 18.28C19.4803 18.26 18.6903 18.23 17.8803 18.23Z" fill="black"/>
<path d="M33.2903 31.37C33.2603 31.37 33.2303 31.37 33.2003 31.36C33.0748 31.334 32.9646 31.2596 32.8934 31.1529C32.8223 31.0462 32.7961 30.9159 32.8203 30.79C34.0503 24.48 36.3003 20.26 39.5103 18.19C36.7703 18.16 33.9903 18.2 31.2803 18.24C30.4503 18.25 29.6103 18.27 28.7703 18.28C28.4803 18.27 28.2803 18.07 28.2803 17.8C28.2803 17.53 28.4903 17.31 28.7603 17.31C29.5903 17.3 30.4303 17.29 31.2603 17.27C34.6303 17.22 38.1203 17.16 41.5003 17.26C41.7303 17.27 41.9303 17.44 41.9703 17.67C42.0103 17.9 41.8803 18.12 41.6603 18.2C37.8103 19.6 35.1503 23.89 33.7703 30.97C33.7203 31.21 33.5103 31.37 33.2903 31.37Z" fill="black"/>
<path d="M32.12 44.27C31.85 44.27 31.63 44.05 31.64 43.78C31.85 28.45 35.11 19.54 41.33 17.3C41.58 17.21 41.86 17.34 41.95 17.59C42.04 17.84 41.91 18.12 41.66 18.21C35.86 20.31 32.82 28.92 32.61 43.8C32.6 44.06 32.38 44.27 32.12 44.27Z" fill="black"/>
<path d="M46.3999 44.27H32.1199C31.9899 44.27 31.8699 44.22 31.7699 44.13C31.6794 44.0361 31.6291 43.9105 31.6299 43.78C31.8399 28.45 35.0999 19.54 41.3199 17.3C41.4599 17.25 41.6099 17.27 41.7399 17.34C43.7199 18.57 45.1299 20.48 46.0499 23.17C46.7399 25.51 46.7599 27.94 46.7799 30.3L46.8799 43.78C46.8799 43.91 46.8299 44.03 46.7399 44.13C46.6959 44.1755 46.643 44.2114 46.5845 44.2354C46.526 44.2595 46.4631 44.2713 46.3999 44.27ZM32.6099 43.3H45.9099L45.8099 30.31C45.7899 28.01 45.7699 25.65 45.1199 23.46C44.3099 21.1 43.0899 19.4 41.4199 18.28C35.8399 20.5 32.8699 28.91 32.6099 43.3Z" fill="black"/>
<path d="M46.4003 44.27C46.3503 44.27 46.3003 44.26 46.2503 44.25C46.1531 44.2178 46.0682 44.1563 46.0073 44.074C45.9464 43.9916 45.9126 43.8924 45.9103 43.79L45.8103 30.32C45.7903 28.02 45.7703 25.66 45.1203 23.47C44.2903 21.07 43.0503 19.35 41.3303 18.23C38.0103 18.14 34.5803 18.19 31.2603 18.25C30.4303 18.26 29.5903 18.28 28.7503 18.29C28.5803 18.28 28.4503 18.22 28.3603 18.1C28.2703 17.98 28.2403 17.82 28.2703 17.68C29.0603 14.75 29.3303 11.75 29.0503 8.76002C28.9903 8.09001 29.2103 7.42001 29.6703 6.93001C30.1303 6.43001 30.7803 6.14001 31.4603 6.14001H58.3503C59.0103 6.14001 59.6303 6.40001 60.0903 6.88001C60.5503 7.35001 60.7903 7.98002 60.7703 8.64002C60.2603 26.29 53.0403 35.8 48.2603 42.09C47.7303 42.79 47.2203 43.45 46.7603 44.09C46.7003 44.2 46.5603 44.27 46.4003 44.27ZM37.4103 17.21C38.7803 17.21 40.1503 17.22 41.5003 17.26C41.5903 17.26 41.6703 17.29 41.7403 17.33C43.7203 18.56 45.1303 20.47 46.0503 23.16C46.7403 25.5 46.7603 27.93 46.7803 30.29L46.8703 42.33C47.0803 42.05 47.2903 41.77 47.5203 41.48C52.2203 35.29 59.3303 25.93 59.8303 8.59001C59.8403 8.19001 59.7003 7.82001 59.4203 7.54001C59.2859 7.39992 59.1244 7.28866 58.9456 7.21301C58.7668 7.13736 58.5745 7.09892 58.3803 7.10001H31.4803C31.0703 7.10001 30.6803 7.27002 30.4003 7.57001C30.1303 7.87001 29.9903 8.26001 30.0303 8.66001C30.2903 11.55 30.0703 14.46 29.3803 17.3L31.2503 17.27C33.2803 17.25 35.3503 17.21 37.4103 17.21ZM13.0403 23.3C12.913 23.3 12.7909 23.2494 12.7009 23.1594C12.6109 23.0694 12.5603 22.9473 12.5603 22.82C12.5503 22.55 12.7703 22.33 13.0403 22.33L30.4503 22H30.4603C30.7203 22 30.9403 22.21 30.9403 22.48C30.9503 22.75 30.7303 22.97 30.4603 22.97L13.0403 23.3ZM9.64031 28.29C9.51301 28.29 9.39092 28.2394 9.3009 28.1494C9.21088 28.0594 9.16031 27.9373 9.16031 27.81C9.16031 27.54 9.38031 27.32 9.64031 27.32L28.7603 27.25C29.0303 27.25 29.2403 27.47 29.2403 27.73C29.2403 28 29.0203 28.22 28.7603 28.22L9.64031 28.29ZM26.7103 33.19L24.8603 33.18C24.5903 33.18 24.3803 32.96 24.3803 32.69C24.3803 32.42 24.6003 32.21 24.8603 32.21L26.7103 32.22C26.9803 32.22 27.1903 32.44 27.1903 32.71C27.2003 32.98 26.9803 33.19 26.7103 33.19ZM20.3303 33.16L7.30031 33.11C7.03031 33.11 6.82031 32.89 6.82031 32.62C6.82031 32.35 7.04031 32.14 7.30031 32.14L20.3303 32.2C20.6003 32.2 20.8103 32.42 20.8103 32.69C20.8203 32.95 20.6003 33.16 20.3303 33.16Z" fill="black"/>
<path d="M64.4398 45.28C64.2798 47.64 63.9198 50.02 62.9198 52.15C60.8098 56.65 55.8098 59.55 50.8398 59.38C45.8698 59.21 41.1798 56.1 38.8598 51.71C37.8498 49.82 37.2598 47.73 36.9198 45.62C36.2898 41.63 38.2598 37.48 39.1898 36.11C42.0698 31.85 47.6198 29.37 52.7298 29.87C57.8198 30.37 62.5898 34.01 63.9898 38.93C64.5698 40.98 64.5798 43.16 64.4398 45.28Z" fill="#FFAD00"/>
<path d="M52.9798 59.27C52.2698 59.37 51.5598 59.41 50.8398 59.38C45.8698 59.21 41.1798 56.1 38.8498 51.7C37.8498 49.81 37.2498 47.72 36.9198 45.61C36.2898 41.61 38.2598 37.47 39.1898 36.1C42.0798 31.84 47.6098 29.36 52.7298 29.86C52.8498 29.87 52.9798 29.89 53.1098 29.9C48.9698 30.41 44.9498 32.68 42.6298 36.1C41.6998 37.47 39.7298 41.61 40.3598 45.61C40.6898 47.72 41.2898 49.81 42.2898 51.7C44.4198 55.72 48.5098 58.65 52.9798 59.27Z" fill="white"/>
<path d="M59.7404 42.6601C56.7404 45.2101 53.9604 48.2901 51.6304 51.5301C50.9804 52.4301 49.7004 52.5701 48.8704 51.8301C46.2404 49.4501 43.7104 46.9201 41.6904 44.0301C43.2204 42.9201 44.7104 41.5901 46.2604 40.4801C46.5304 40.9601 46.7904 41.4401 47.1104 41.8901C47.8585 42.9999 48.8637 43.9124 50.0404 44.5501C50.9804 43.6101 51.9204 43.0101 52.8604 42.0701L56.2904 39.0601L59.7404 42.6601Z" fill="white"/>
<path d="M51.2606 59.87C51.1106 59.87 50.9706 59.87 50.8206 59.86C45.7506 59.68 40.8806 56.57 38.4206 51.93C37.4706 50.15 36.8006 48.05 36.4306 45.68C35.7606 41.44 37.9006 37.13 38.7706 35.83C41.7406 31.45 47.3706 28.85 52.7606 29.38C58.2106 29.91 63.0106 33.78 64.4406 38.79C65.0906 41.08 65.0306 43.48 64.9106 45.31C64.7706 47.33 64.4706 49.96 63.3506 52.35C61.2706 56.83 56.3406 59.87 51.2606 59.87ZM51.4306 30.29C46.8306 30.29 42.0906 32.68 39.5906 36.38C38.7706 37.59 36.7806 41.61 37.4006 45.54C37.7506 47.8 38.3906 49.8 39.2906 51.48C41.5906 55.82 46.1306 58.73 50.8606 58.9C55.7306 59.07 60.4906 56.21 62.4906 51.95C63.5406 49.7 63.8306 47.19 63.9606 45.25C64.0806 43.5 64.1306 41.21 63.5306 39.06C62.2106 34.42 57.7506 30.84 52.6906 30.35C52.2706 30.31 51.8506 30.29 51.4306 30.29Z" fill="black"/>
<path d="M50.1307 52.79C49.5507 52.79 48.9907 52.58 48.5607 52.19C46.3507 50.19 43.5307 47.5 41.3007 44.31C41.1507 44.09 41.2007 43.79 41.4107 43.64C42.1607 43.1 42.9207 42.49 43.6507 41.9C44.4107 41.29 45.1907 40.66 45.9807 40.09C46.0907 40.01 46.2307 39.98 46.3707 40.01C46.4369 40.0247 46.4994 40.0526 46.5544 40.0922C46.6094 40.1317 46.6558 40.182 46.6907 40.24L46.8507 40.52C47.0707 40.91 47.2807 41.27 47.5207 41.62C48.1607 42.57 49.0007 43.37 49.9707 43.96C50.3707 43.59 50.7607 43.26 51.1507 42.95C51.6207 42.56 52.0707 42.19 52.5307 41.74L55.9807 38.71C56.1707 38.54 56.4707 38.55 56.6507 38.74L60.1107 42.33C60.2007 42.43 60.2507 42.56 60.2507 42.69C60.2407 42.82 60.1807 42.95 60.0807 43.04C57.2107 45.48 54.4307 48.52 52.0507 51.82C51.6607 52.36 51.0607 52.71 50.4007 52.78C50.3007 52.78 50.2107 52.79 50.1307 52.79ZM42.3707 44.13C44.5007 47.07 47.1307 49.59 49.2107 51.46C49.5007 51.72 49.8907 51.85 50.2807 51.8C50.6707 51.76 51.0107 51.56 51.2507 51.23C53.5607 48.01 56.2507 45.04 59.0507 42.61L56.2707 39.73L53.1907 42.43C52.7207 42.89 52.2407 43.29 51.7707 43.68C51.3007 44.07 50.8507 44.44 50.3907 44.89C50.2407 45.04 50.0107 45.07 49.8207 44.97C48.5739 44.2955 47.51 43.3276 46.7207 42.15C46.5007 41.84 46.3107 41.5 46.1207 41.18C45.5007 41.65 44.8707 42.15 44.2707 42.64C43.6407 43.14 43.0107 43.65 42.3707 44.13ZM12.0407 52.08C11.8507 52.08 11.6507 52.07 11.4507 52.06C9.51074 51.92 7.98074 51.12 7.25074 49.86C7.12074 49.63 7.20074 49.33 7.43074 49.2C7.66074 49.07 7.96074 49.15 8.09074 49.38C8.89074 50.77 10.7507 51.04 11.5107 51.1C12.5007 51.17 13.3407 51.05 14.0207 50.75C14.8007 50.4 15.4007 49.78 15.6107 49.08C15.8307 48.34 15.5907 47.51 15.0307 47.1C14.4307 46.66 13.5607 46.73 12.9307 46.86C12.6207 46.93 12.3207 47.01 12.0107 47.1C11.4907 47.25 10.9507 47.41 10.3707 47.46C9.19074 47.58 8.16074 47.19 7.62074 46.41C7.06074 45.61 7.08074 44.42 7.67074 43.37C8.40074 42.07 9.66074 41.32 10.5907 40.93C11.7407 40.44 12.9507 40.22 14.1307 40C14.258 39.9761 14.3896 40.0038 14.4965 40.077C14.6034 40.1501 14.6769 40.2627 14.7007 40.39C14.7246 40.5173 14.6969 40.6489 14.6238 40.7558C14.5507 40.8627 14.438 40.9361 14.3107 40.96C13.1907 41.17 12.0307 41.39 10.9807 41.83C10.1907 42.17 9.13074 42.79 8.53074 43.86C8.22074 44.41 8.01074 45.27 8.43074 45.87C8.83074 46.44 9.65074 46.57 10.2907 46.51C10.7707 46.46 11.2507 46.32 11.7507 46.18C12.0707 46.09 12.4007 45.99 12.7407 45.92C13.9107 45.67 14.9007 45.81 15.6107 46.32C16.5107 46.97 16.8907 48.22 16.5507 49.36C16.2607 50.33 15.4707 51.18 14.4307 51.64C13.7407 51.93 12.9407 52.08 12.0407 52.08Z" fill="black"/>
<path d="M10.3201 42.08C10.1301 42.08 9.95009 41.97 9.87009 41.78L8.88009 39.37C8.78009 39.12 8.90009 38.84 9.14009 38.74C9.39009 38.64 9.67009 38.76 9.77009 39L10.7601 41.41C10.8601 41.66 10.7401 41.94 10.5001 42.04C10.4401 42.07 10.3801 42.08 10.3201 42.08ZM12.6401 54.02C12.5128 54.02 12.3907 53.9694 12.3007 53.8794C12.2107 53.7894 12.1601 53.6673 12.1601 53.54V51.57C12.1601 51.3 12.3801 51.09 12.6401 51.09C12.9001 51.09 13.1201 51.31 13.1201 51.57V53.54C13.1301 53.81 12.9101 54.02 12.6401 54.02ZM27.8501 45.2H27.4001C27.1301 45.2 26.9201 44.98 26.9201 44.72C26.9201 44.46 27.1401 44.24 27.4001 44.24H27.8501C28.1201 44.24 28.3301 44.46 28.3301 44.72C28.3301 44.98 28.1101 45.2 27.8501 45.2ZM24.9901 45.2H19.9401C19.6701 45.2 19.4601 44.98 19.4601 44.72C19.4601 44.46 19.6801 44.24 19.9401 44.24H24.9901C25.2601 44.24 25.4701 44.46 25.4701 44.72C25.4701 44.98 25.2501 45.2 24.9901 45.2ZM19.9101 49.37C19.7894 49.3704 19.673 49.3254 19.5841 49.2438C19.4951 49.1623 19.4401 49.0502 19.4301 48.93C19.4189 48.8015 19.4589 48.6738 19.5412 48.5746C19.6236 48.4754 19.7418 48.4127 19.8701 48.4C22.5401 48.17 25.2401 48.14 27.9101 48.31C28.1801 48.33 28.3801 48.56 28.3601 48.83C28.3401 49.1 28.1101 49.3 27.8401 49.28C25.2201 49.11 22.5601 49.14 19.9501 49.37H19.9101ZM52.1501 11.07H50.0401C49.9128 11.07 49.7907 11.0194 49.7007 10.9294C49.6107 10.8394 49.5601 10.7173 49.5601 10.59C49.5601 10.4627 49.6107 10.3406 49.7007 10.2506C49.7907 10.1606 49.9128 10.11 50.0401 10.11H52.1501C52.4201 10.11 52.6301 10.33 52.6301 10.59C52.6301 10.86 52.4201 11.07 52.1501 11.07ZM47.0901 11.07H38.1701C37.9001 11.07 37.6901 10.85 37.6901 10.59C37.6901 10.33 37.9101 10.11 38.1701 10.11H47.0901C47.3601 10.11 47.5701 10.33 47.5701 10.59C47.5801 10.86 47.3601 11.07 47.0901 11.07ZM37.7201 15C37.4601 15 37.2501 14.8 37.2401 14.54C37.2346 14.4116 37.2798 14.2863 37.3658 14.1909C37.4518 14.0955 37.5719 14.0377 37.7001 14.03C42.3801 13.8 47.5301 13.76 52.2201 13.94C52.4901 13.95 52.7001 14.17 52.6901 14.44C52.6801 14.71 52.4501 14.92 52.1901 14.91C47.5301 14.74 42.4101 14.77 37.7601 15H37.7201Z" fill="black"/>
</svg>
