<svg width="41" height="41" viewBox="0 0 41 41" fill="none" xmlns="http://www.w3.org/2000/svg">
<circle cx="20.5" cy="20.5" r="20" fill="#6882F7" fill-opacity="0.1"/>
<path d="M27.7615 25.0338L26.8342 27.0176L24.7799 27.913C24.3221 28.1171 24.3221 28.7406 24.7799 28.9446L26.8342 29.8401L27.7615 31.8351C27.9729 32.2772 28.6185 32.2772 28.8299 31.8351L29.7572 29.8514L31.8233 28.9559C32.2811 28.7519 32.2811 28.1284 31.8233 27.9245L29.7689 27.0289L28.8416 25.0338C28.6303 24.5918 27.9729 24.5918 27.7615 25.0338Z" fill="#6882F7"/>
<path d="M28.8416 15.9662L29.7689 13.9825L31.8233 13.087C32.2811 12.883 32.2811 12.2595 31.8233 12.0555L29.7689 11.16L28.8416 9.16494C28.6303 8.72285 27.9846 8.72285 27.7734 9.16494L26.8459 11.1486L24.7799 12.0442C24.3221 12.2482 24.3221 12.8716 24.7799 13.0757L26.8342 13.9712L27.7615 15.9662C27.9729 16.4083 28.6303 16.4083 28.8416 15.9662Z" fill="#6882F7"/>
<path d="M19.4983 17.6658L17.6319 13.6984C17.221 12.8142 15.9062 12.8142 15.4954 13.6984L13.6289 17.6658L9.52022 19.4682C8.60459 19.8762 8.60459 21.1345 9.52022 21.5312L13.6289 23.3336L15.4954 27.301C15.918 28.1852 17.221 28.1852 17.6319 27.301L19.4983 23.3336L23.6069 21.5312C24.5226 21.1232 24.5226 19.8649 23.6069 19.4682L19.4983 17.6658Z" fill="#6882F7"/>
</svg>
