<svg width="51" height="50" viewBox="0 0 51 50" fill="none" xmlns="http://www.w3.org/2000/svg">
<path d="M33.2139 7.72641C32.4318 6.37206 31.307 5.24743 29.9525 4.46552C28.5981 3.68361 27.0617 3.27197 25.4977 3.27197C23.9338 3.27197 22.3974 3.68361 21.0429 4.46552C19.6885 5.24743 18.5637 6.37206 17.7816 7.72641L2.97992 33.3627C2.19816 34.7173 1.78667 36.2538 1.78678 37.8178C1.78689 39.3817 2.1986 40.9181 2.98054 42.2726C3.76249 43.6271 4.88713 44.7519 6.24147 45.5341C7.59581 46.3162 9.13215 46.7282 10.6961 46.7286H40.2993C41.8632 46.7282 43.3996 46.3162 44.7539 45.534C46.1082 44.7519 47.2328 43.627 48.0148 42.2726C48.7967 40.9181 49.2084 39.3817 49.2085 37.8177C49.2086 36.2538 48.7971 34.7173 48.0154 33.3627L33.2139 7.72641ZM46.6622 41.4905C46.024 42.6133 45.0979 43.5457 43.9796 44.1918C42.8612 44.8378 41.5908 45.1741 40.2993 45.1661H10.6961C9.4064 45.1657 8.13948 44.8259 7.02266 44.1808C5.90583 43.5358 4.97843 42.6082 4.33362 41.4912C3.68882 40.3742 3.34932 39.1072 3.34924 37.8175C3.34915 36.5278 3.68848 35.2607 4.33314 34.1437L19.1348 8.50736C20.4825 6.17338 22.8016 4.83432 25.4978 4.83432C28.1964 4.83432 30.5156 6.17289 31.8603 8.50687L46.6622 34.144C47.3151 35.258 47.6593 36.526 47.6593 37.8172C47.6593 39.1085 47.3151 40.3764 46.6622 41.4905ZM37.9889 22.0626L30.5868 9.2432C29.5082 7.3765 27.6535 6.306 25.4979 6.306C23.344 6.306 21.4902 7.3765 20.4116 9.2434L13.0092 22.0629L5.6099 34.8792C4.53129 36.7461 4.53129 38.8875 5.6099 40.7543C6.68851 42.6211 8.54222 43.6914 10.6961 43.6914H40.2993C42.4548 43.6914 44.3098 42.6208 45.3882 40.7542C46.4666 38.8876 46.4668 36.746 45.3882 34.8793L37.9889 22.0626ZM44.0353 39.9727C43.6643 40.6352 43.1214 41.1852 42.4639 41.5647C41.8063 41.9442 41.0584 42.1392 40.2993 42.1289H10.6961C9.9393 42.1287 9.19587 41.9293 8.54053 41.5507C7.88519 41.1721 7.34103 40.6277 6.96272 39.9723C6.58441 39.3168 6.38527 38.5733 6.38533 37.8164C6.38538 37.0596 6.58462 36.3161 6.96303 35.6607L14.3623 22.844L21.7647 10.0246C22.1432 9.36905 22.6876 8.82463 23.3431 8.44612C23.9987 8.0676 24.7424 7.86833 25.4994 7.86833C26.2564 7.86833 27.0001 8.0676 27.6557 8.44612C28.3112 8.82463 28.8556 9.36905 29.2341 10.0246L36.6365 22.8439L44.0353 35.6609C44.4239 36.3129 44.629 37.0578 44.629 37.8168C44.629 38.5758 44.4239 39.3207 44.0353 39.9727ZM25.4978 16.9025C25.0568 16.9038 24.6206 16.9939 24.2153 17.1674C23.8099 17.341 23.4436 17.5944 23.1383 17.9126C22.8498 18.2084 22.6246 18.5599 22.4768 18.9457C22.3289 19.3315 22.2614 19.7435 22.2785 20.1563L22.6522 28.6879C22.7213 30.2648 23.9713 31.5004 25.4978 31.5004C27.0142 31.5004 28.2652 30.2677 28.3461 28.6879L28.7172 20.1579C28.7351 19.7454 28.6684 19.3336 28.5213 18.9478C28.3741 18.5621 28.1496 18.2105 27.8616 17.9147C27.5559 17.5957 27.189 17.3416 26.7828 17.1677C26.3767 16.9938 25.9396 16.9036 25.4978 16.9025ZM26.7854 28.6141C26.7463 29.3688 26.1932 29.9379 25.4978 29.9379C24.8099 29.9379 24.2456 29.3589 24.2132 28.6196L23.8394 20.0882C23.8323 19.8862 23.8666 19.6848 23.9401 19.4964C24.0136 19.3081 24.1248 19.1367 24.2668 18.9928C24.4258 18.8258 24.617 18.6929 24.8289 18.6021C25.0408 18.5112 25.2689 18.4645 25.4995 18.4646C25.73 18.4647 25.9581 18.5116 26.17 18.6026C26.3818 18.6936 26.5729 18.8267 26.7317 18.9939C26.8733 19.1376 26.9839 19.3088 27.0569 19.4969C27.1299 19.685 27.1636 19.886 27.156 20.0876L26.7854 28.6141ZM25.4978 32.2521C24.9344 32.2526 24.3838 32.4201 23.9156 32.7334C23.4474 33.0468 23.0826 33.4919 22.8673 34.0126C22.652 34.5332 22.5959 35.106 22.7062 35.6585C22.8164 36.2111 23.0879 36.7185 23.4865 37.1167C23.885 37.5149 24.3927 37.786 24.9453 37.8958C25.4979 38.0055 26.0706 37.9489 26.5911 37.7332C27.1116 37.5175 27.5564 37.1523 27.8694 36.6838C28.1823 36.2154 28.3494 35.6646 28.3494 35.1012C28.3485 34.3454 28.0477 33.6209 27.5131 33.0867C26.9784 32.5525 26.2536 32.2523 25.4978 32.2521ZM25.4978 36.3877C25.2434 36.3872 24.9949 36.3114 24.7836 36.1697C24.5724 36.028 24.4078 35.8269 24.3108 35.5918C24.2138 35.3566 24.1887 35.098 24.2386 34.8486C24.2886 34.5992 24.4113 34.3701 24.5914 34.1904C24.7714 34.0107 25.0007 33.8885 25.2502 33.839C25.4997 33.7896 25.7583 33.8152 25.9932 33.9127C26.2282 34.0102 26.429 34.1751 26.5702 34.3866C26.7115 34.5982 26.7869 34.8468 26.7869 35.1012C26.7865 35.4427 26.6504 35.7701 26.4087 36.0114C26.167 36.2526 25.8393 36.388 25.4978 36.3877ZM2.1684 20.4742C1.3702 17.4803 1.79204 14.292 3.34139 11.6087C4.89074 8.92545 7.44109 6.96621 10.433 6.16078C10.5325 6.13305 10.6365 6.12531 10.739 6.13802C10.8414 6.15072 10.9404 6.18361 11.0301 6.23479C11.1197 6.28596 11.1984 6.35441 11.2615 6.43617C11.3245 6.51793 11.3707 6.61139 11.3975 6.71113C11.4242 6.81086 11.4309 6.91491 11.4172 7.01725C11.4034 7.11959 11.3695 7.21819 11.3175 7.30736C11.2654 7.39652 11.1961 7.47448 11.1137 7.53671C11.0314 7.59895 10.9374 7.64424 10.8374 7.66996C8.24543 8.36766 6.03598 10.065 4.69375 12.3896C3.35152 14.7141 2.98611 17.4762 3.67767 20.0699C3.70464 20.1691 3.71176 20.2727 3.6986 20.3747C3.68545 20.4767 3.65229 20.575 3.60103 20.6642C3.54977 20.7533 3.48141 20.8315 3.39988 20.8942C3.31835 20.9568 3.22525 21.0028 3.12592 21.0294C3.02659 21.056 2.92298 21.0627 2.82104 21.0492C2.7191 21.0357 2.62083 21.0022 2.53187 20.9506C2.44291 20.899 2.36501 20.8304 2.30264 20.7486C2.24026 20.6669 2.19464 20.5736 2.1684 20.4742ZM11.4735 10.0445C11.5726 10.0179 11.6759 10.011 11.7776 10.0244C11.8794 10.0377 11.9775 10.071 12.0664 10.1222C12.1552 10.1735 12.2331 10.2417 12.2956 10.3231C12.3581 10.4045 12.404 10.4973 12.4306 10.5964C12.4572 10.6955 12.464 10.7989 12.4507 10.9006C12.4374 11.0023 12.4041 11.1004 12.3529 11.1893C12.3016 11.2782 12.2333 11.3561 12.152 11.4186C12.0706 11.4811 11.9777 11.5269 11.8786 11.5536C10.3164 11.9744 8.98485 12.9977 8.17603 14.399C7.3672 15.8003 7.14714 17.4652 7.5641 19.0285C7.5907 19.1275 7.59753 19.2309 7.58419 19.3326C7.57085 19.4344 7.5376 19.5325 7.48635 19.6213C7.4351 19.7102 7.36684 19.7881 7.28548 19.8506C7.20411 19.9131 7.11123 19.959 7.01215 19.9856C6.91306 20.0122 6.8097 20.019 6.70797 20.0057C6.60625 19.9923 6.50815 19.9591 6.41927 19.9078C6.33039 19.8566 6.25248 19.7883 6.18998 19.707C6.12748 19.6256 6.08162 19.5327 6.05502 19.4336C5.53116 17.4701 5.80741 15.379 6.82318 13.6189C7.83895 11.8588 9.5113 10.5735 11.4735 10.0447V10.0445ZM47.6607 11.6052C48.4321 12.9329 48.9325 14.4004 49.1326 15.9229C49.3328 17.4453 49.2289 18.9923 48.8269 20.4743C48.8007 20.5738 48.7552 20.6672 48.6928 20.7491C48.6304 20.831 48.5525 20.8998 48.4634 20.9515C48.3744 21.0031 48.276 21.0367 48.174 21.0502C48.0719 21.0638 47.9682 21.057 47.8688 21.0303C47.7694 21.0036 47.6762 20.9576 47.5946 20.8948C47.5131 20.8319 47.4447 20.7536 47.3935 20.6643C47.3423 20.575 47.3093 20.4765 47.2963 20.3744C47.2833 20.2722 47.2906 20.1686 47.3178 20.0693C47.6622 18.7852 47.7503 17.4458 47.577 16.1277C47.4037 14.8095 46.9724 13.5385 46.3077 12.387C45.6431 11.2356 44.7582 10.2264 43.7034 9.41702C42.6487 8.60765 41.4449 8.014 40.1607 7.66996C40.0607 7.64424 39.9668 7.59895 39.8844 7.53671C39.802 7.47448 39.7327 7.39652 39.6807 7.30736C39.6286 7.21819 39.5947 7.11959 39.581 7.01725C39.5672 6.91491 39.5739 6.81086 39.6006 6.71113C39.6274 6.61139 39.6736 6.51793 39.7367 6.43617C39.7997 6.35441 39.8784 6.28596 39.9681 6.23479C40.0578 6.18361 40.1567 6.15072 40.2592 6.13802C40.3616 6.12531 40.4656 6.13305 40.5651 6.16078C42.049 6.55408 43.4403 7.23781 44.6582 8.17238C45.8762 9.10695 46.8967 10.2738 47.6607 11.6054V11.6052ZM38.5676 10.5964C38.6213 10.3963 38.7523 10.2258 38.9318 10.1223C39.1113 10.0187 39.3245 9.99077 39.5246 10.0445C41.4869 10.5731 43.1594 11.8585 44.1753 13.6187C45.1912 15.3788 45.4674 17.4701 44.9435 19.4336C44.9175 19.5334 44.8721 19.6271 44.8098 19.7092C44.7475 19.7914 44.6695 19.8604 44.5804 19.9122C44.4913 19.9641 44.3928 19.9978 44.2906 20.0115C44.1884 20.0251 44.0845 20.0183 43.9849 19.9916C43.8853 19.9649 43.792 19.9187 43.7104 19.8558C43.6287 19.7928 43.5603 19.7143 43.5092 19.6248C43.458 19.5353 43.425 19.4366 43.4122 19.3343C43.3994 19.232 43.4069 19.1281 43.4344 19.0287C43.8514 17.4655 43.6314 15.8006 42.8226 14.3993C42.0137 12.998 40.6822 11.9747 39.12 11.5538C39.0208 11.5273 38.9279 11.4815 38.8465 11.419C38.7651 11.3565 38.6968 11.2786 38.6455 11.1897C38.5942 11.1008 38.5609 11.0026 38.5475 10.9009C38.5342 10.7991 38.541 10.6957 38.5676 10.5966V10.5964Z" fill="white"/>
<path d="M36.6356 22.8437L29.2333 10.0245C28.8548 9.36889 28.3104 8.82447 27.6548 8.44595C26.9993 8.06744 26.2556 7.86816 25.4986 7.86816C24.7416 7.86816 23.9979 8.06744 23.3424 8.44595C22.6868 8.82447 22.1424 9.36889 21.7639 10.0245L14.3616 22.8438L6.96295 35.6605C6.58455 36.316 6.38531 37.0594 6.38525 37.8163C6.3852 38.5731 6.58433 39.3166 6.96264 39.9721C7.34095 40.6276 7.88512 41.172 8.54046 41.5505C9.1958 41.9291 9.93923 42.1285 10.6961 42.1288H40.2992C41.0562 42.129 41.8 41.9299 42.4557 41.5516C43.1114 41.1732 43.6559 40.6289 44.0346 39.9734C44.4132 39.3178 44.6126 38.5742 44.6127 37.8171C44.6128 37.0601 44.4137 36.3164 44.0352 35.6607L36.6356 22.8437ZM25.4977 37.9501C24.9343 37.9496 24.3837 37.7821 23.9155 37.4687C23.4473 37.1554 23.0825 36.7102 22.8672 36.1896C22.6519 35.6689 22.5959 35.0961 22.7061 34.5436C22.8163 33.9911 23.0879 33.4836 23.4864 33.0854C23.885 32.6872 24.3927 32.4161 24.9453 32.3064C25.4979 32.1967 26.0706 32.2532 26.5911 32.469C27.1116 32.6847 27.5564 33.0499 27.8693 33.5184C28.1823 33.9869 28.3493 34.5377 28.3493 35.1011C28.3484 35.8568 28.0476 36.5814 27.513 37.1156C26.9783 37.6498 26.2535 37.9499 25.4977 37.9501ZM28.7169 20.1578L28.3458 28.6879C28.2647 30.2676 27.0138 31.5004 25.4974 31.5004C23.971 31.5004 22.721 30.2651 22.6518 28.6879L22.2784 20.1561C22.2613 19.7433 22.3287 19.3313 22.4764 18.9454C22.6242 18.5595 22.8493 18.2079 23.1378 17.9121C23.4426 17.5927 23.8092 17.3384 24.2152 17.1648C24.6212 16.9912 25.0582 16.9017 25.4998 16.9019C25.9414 16.9021 26.3783 16.992 26.7842 17.166C27.19 17.34 27.5563 17.5945 27.8609 17.9142C28.1491 18.21 28.3736 18.5617 28.5208 18.9475C28.668 19.3334 28.7347 19.7452 28.7169 20.1578Z" fill="#6882F7"/>
</svg>
