<svg width="25" height="24" viewBox="0 0 25 24" fill="none" xmlns="http://www.w3.org/2000/svg">
<mask id="mask0_1108_5738" style="mask-type:luminance" maskUnits="userSpaceOnUse" x="0" y="0" width="25" height="24">
<path d="M0.5 0H24.5V24H0.5V0Z" fill="white"/>
</mask>
<g mask="url(#mask0_1108_5738)">
<mask id="mask1_1108_5738" style="mask-type:luminance" maskUnits="userSpaceOnUse" x="0" y="0" width="25" height="24">
<path d="M0.5 0H24.5V24H0.5V0Z" fill="white"/>
</mask>
<g mask="url(#mask1_1108_5738)">
<path d="M13.6999 3.60002C13.6999 3.26865 13.5827 2.98581 13.3484 2.7515C13.1141 2.51718 12.8313 2.40002 12.4999 2.40002C12.1685 2.40002 11.8857 2.51718 11.6514 2.7515C11.4171 2.98581 11.2999 3.26865 11.2999 3.60002V4.80002C11.2999 5.13139 11.4171 5.41423 11.6514 5.64855C11.8857 5.88286 12.1685 6.00002 12.4999 6.00002C12.8313 6.00002 13.1141 5.88286 13.3484 5.64855C13.5827 5.41423 13.6999 5.13139 13.6999 4.80002V3.60002ZM19.2883 6.90842C19.5157 6.67299 19.6279 6.39163 19.6251 6.06434C19.6223 5.73705 19.5051 5.45769 19.2737 5.22625C19.0422 4.99481 18.7629 4.87767 18.4356 4.87482C18.1083 4.87197 17.8269 4.98424 17.5915 5.21162L16.7431 6.06002C16.5157 6.29545 16.4034 6.57681 16.4063 6.9041C16.4091 7.2314 16.5263 7.51077 16.7577 7.74221C16.9892 7.97365 17.2685 8.0908 17.5958 8.09364C17.9231 8.09648 18.2045 7.98421 18.4399 7.75682L19.2883 6.90842ZM22.0999 12C22.0999 12.3314 21.9827 12.6142 21.7484 12.8485C21.5141 13.0828 21.2313 13.2 20.8999 13.2H19.6999C19.3685 13.2 19.0857 13.0828 18.8514 12.8485C18.6171 12.6142 18.4999 12.3314 18.4999 12C18.4999 11.6687 18.6171 11.3858 18.8514 11.1515C19.0857 10.9172 19.3685 10.8 19.6999 10.8H20.8999C21.2313 10.8 21.5141 10.9172 21.7484 11.1515C21.9827 11.3858 22.0999 11.6687 22.0999 12ZM6.5599 7.75682C6.79294 7.99811 7.07718 8.12021 7.41262 8.12312C7.74806 8.12604 8.03437 8.00889 8.27157 7.77169C8.50877 7.53449 8.62592 7.24818 8.623 6.91274C8.62009 6.5773 8.49799 6.29306 8.2567 6.06002L7.4083 5.21162C7.17287 4.98424 6.89151 4.87197 6.56422 4.87481C6.23693 4.87766 5.95756 4.9948 5.72612 5.22624C5.49468 5.45768 5.37754 5.73705 5.37469 6.06434C5.37185 6.39163 5.48412 6.67299 5.7115 6.90842L6.5599 7.75682ZM6.4999 12C6.4999 12.3314 6.38274 12.6142 6.14843 12.8485C5.91411 13.0828 5.63127 13.2 5.2999 13.2H4.0999C3.76853 13.2 3.48569 13.0828 3.25137 12.8485C3.01706 12.6142 2.8999 12.3314 2.8999 12C2.8999 11.6687 3.01706 11.3858 3.25137 11.1515C3.48569 10.9172 3.76853 10.8 4.0999 10.8H5.2999C5.63127 10.8 5.91411 10.9172 6.14843 11.1515C6.38274 11.3858 6.4999 11.6687 6.4999 12ZM10.0999 19.2V18H14.8999V19.2C14.8999 19.8627 14.6656 20.4284 14.197 20.8971C13.7283 21.3657 13.1626 21.6 12.4999 21.6C11.8372 21.6 11.2715 21.3657 10.8028 20.8971C10.3342 20.4284 10.0999 19.8627 10.0999 19.2ZM14.8999 16.8C14.9179 16.392 15.1495 16.0248 15.4723 15.7692C16.5712 14.9025 17.1755 13.7715 17.2852 12.3763C17.3948 10.981 16.9745 9.76949 16.0244 8.74181C15.0743 7.71413 13.8995 7.20029 12.4999 7.20029C11.1003 7.20029 9.92547 7.71413 8.97537 8.74181C8.02526 9.76949 7.60502 10.981 7.71465 12.3763C7.82427 13.7715 8.42856 14.9025 9.5275 15.7692C9.8515 16.0248 10.0819 16.392 10.0987 16.8H14.8999Z" fill="white"/>
</g>
</g>
</svg>
